G04*
G04 #@! TF.GenerationSoftware,Altium Limited,Altium Designer,23.7.1 (13)*
G04*
G04 Layer_Physical_Order=1*
G04 Layer_Color=255*
%FSAX25Y25*%
%MOIN*%
G70*
G04*
G04 #@! TF.SameCoordinates,D3BDAB34-4FC1-430C-B3A9-8A659056F9B6*
G04*
G04*
G04 #@! TF.FilePolarity,Positive*
G04*
G01*
G75*
%ADD10C,0.03937*%
%ADD11C,0.05906*%
%ADD12C,0.13780*%
%ADD13R,0.05906X0.05906*%
%ADD14C,0.05906*%
%ADD15C,0.06102*%
%ADD16R,0.06102X0.06102*%
%ADD17R,0.06693X0.06693*%
%ADD18C,0.06693*%
%ADD19R,0.08071X0.08071*%
%ADD20C,0.08071*%
%ADD21C,0.11811*%
%ADD22R,0.11811X0.11811*%
%ADD23R,0.07874X0.07874*%
%ADD24C,0.07874*%
%ADD25R,0.11811X0.11811*%
G36*
X0258500Y0144500D02*
X0352668D01*
Y0109000D01*
X0258500D01*
Y0108500D01*
X0100000D01*
Y0139576D01*
X0102366Y0141264D01*
X0105905Y0142365D01*
X0106331Y0142080D01*
X0107949Y0141410D01*
X0109666Y0141069D01*
X0111417D01*
X0113135Y0141410D01*
X0114752Y0142080D01*
X0116209Y0143053D01*
X0117447Y0144291D01*
X0118420Y0145748D01*
X0119090Y0147365D01*
X0119431Y0149083D01*
Y0150834D01*
X0119090Y0152551D01*
X0118420Y0154169D01*
X0117447Y0155625D01*
X0116209Y0156864D01*
X0114752Y0157836D01*
X0113135Y0158507D01*
X0111417Y0158848D01*
X0109666D01*
X0107949Y0158507D01*
X0106331Y0157836D01*
X0105905Y0157552D01*
X0102366Y0158653D01*
X0100000Y0160340D01*
Y0327000D01*
X0258500D01*
Y0144500D01*
D02*
G37*
%LPC*%
G36*
X0116330Y0319197D02*
X0115166D01*
X0114969Y0319158D01*
X0114769D01*
X0113628Y0318931D01*
X0113442Y0318854D01*
X0113245Y0318814D01*
X0112170Y0318369D01*
X0112003Y0318258D01*
X0111818Y0318181D01*
X0110851Y0317535D01*
X0110708Y0317392D01*
X0110542Y0317281D01*
X0109719Y0316458D01*
X0109607Y0316291D01*
X0109465Y0316149D01*
X0108819Y0315182D01*
X0108742Y0314997D01*
X0108631Y0314830D01*
X0108186Y0313755D01*
X0108146Y0313558D01*
X0108070Y0313372D01*
X0107843Y0312231D01*
Y0312031D01*
X0107803Y0311834D01*
Y0310670D01*
X0107843Y0310473D01*
Y0310273D01*
X0108070Y0309132D01*
X0108146Y0308946D01*
X0108186Y0308749D01*
X0108631Y0307674D01*
X0108742Y0307507D01*
X0108819Y0307322D01*
X0109465Y0306354D01*
X0109607Y0306212D01*
X0109719Y0306046D01*
X0110542Y0305223D01*
X0110708Y0305111D01*
X0110851Y0304969D01*
X0111818Y0304323D01*
X0112003Y0304246D01*
X0112170Y0304135D01*
X0113245Y0303689D01*
X0113442Y0303650D01*
X0113628Y0303573D01*
X0114769Y0303346D01*
X0114969D01*
X0115166Y0303307D01*
X0116330D01*
X0116527Y0303346D01*
X0116727D01*
X0117868Y0303573D01*
X0118054Y0303650D01*
X0118251Y0303689D01*
X0119326Y0304135D01*
X0119493Y0304246D01*
X0119678Y0304323D01*
X0120645Y0304969D01*
X0120788Y0305111D01*
X0120955Y0305223D01*
X0121777Y0306046D01*
X0121889Y0306212D01*
X0122031Y0306354D01*
X0122677Y0307322D01*
X0122754Y0307507D01*
X0122865Y0307674D01*
X0123310Y0308749D01*
X0123350Y0308946D01*
X0123427Y0309132D01*
X0123653Y0310273D01*
Y0310473D01*
X0123693Y0310670D01*
Y0311834D01*
X0123653Y0312031D01*
Y0312231D01*
X0123427Y0313372D01*
X0123350Y0313558D01*
X0123310Y0313755D01*
X0122865Y0314830D01*
X0122754Y0314997D01*
X0122677Y0315182D01*
X0122031Y0316149D01*
X0121889Y0316291D01*
X0121777Y0316458D01*
X0120955Y0317281D01*
X0120788Y0317393D01*
X0120645Y0317535D01*
X0119678Y0318181D01*
X0119493Y0318258D01*
X0119326Y0318369D01*
X0118251Y0318814D01*
X0118054Y0318854D01*
X0117868Y0318931D01*
X0116727Y0319158D01*
X0116527D01*
X0116330Y0319197D01*
D02*
G37*
G36*
X0144849Y0317776D02*
X0143071D01*
X0142874Y0317737D01*
X0142673D01*
X0140929Y0317390D01*
X0140743Y0317313D01*
X0140546Y0317274D01*
X0138903Y0316593D01*
X0138736Y0316481D01*
X0138551Y0316405D01*
X0137072Y0315417D01*
X0136930Y0315275D01*
X0136763Y0315163D01*
X0135506Y0313906D01*
X0135394Y0313738D01*
X0135252Y0313597D01*
X0134264Y0312118D01*
X0134187Y0311932D01*
X0134076Y0311765D01*
X0133395Y0310122D01*
X0133356Y0309925D01*
X0133279Y0309740D01*
X0132932Y0307996D01*
Y0307795D01*
X0132893Y0307598D01*
Y0305820D01*
X0132932Y0305623D01*
Y0305422D01*
X0133279Y0303678D01*
X0133356Y0303492D01*
X0133395Y0303295D01*
X0134076Y0301652D01*
X0134187Y0301485D01*
X0134264Y0301299D01*
X0135252Y0299821D01*
X0135394Y0299679D01*
X0135506Y0299512D01*
X0136763Y0298254D01*
X0136930Y0298143D01*
X0137072Y0298001D01*
X0138551Y0297013D01*
X0138736Y0296936D01*
X0138903Y0296824D01*
X0140546Y0296144D01*
X0140743Y0296105D01*
X0140929Y0296028D01*
X0142673Y0295681D01*
X0142874D01*
X0143071Y0295641D01*
X0144849D01*
X0145046Y0295681D01*
X0145247D01*
X0146991Y0296028D01*
X0147177Y0296105D01*
X0147374Y0296144D01*
X0149017Y0296824D01*
X0149184Y0296936D01*
X0149369Y0297013D01*
X0150848Y0298001D01*
X0150990Y0298143D01*
X0151157Y0298254D01*
X0152414Y0299512D01*
X0152526Y0299679D01*
X0152668Y0299821D01*
X0153656Y0301299D01*
X0153733Y0301485D01*
X0153844Y0301652D01*
X0154525Y0303295D01*
X0154564Y0303492D01*
X0154641Y0303678D01*
X0154988Y0305422D01*
Y0305623D01*
X0155027Y0305820D01*
Y0307598D01*
X0154988Y0307795D01*
Y0307996D01*
X0154641Y0309740D01*
X0154564Y0309925D01*
X0154525Y0310122D01*
X0153844Y0311765D01*
X0153733Y0311932D01*
X0153656Y0312118D01*
X0152668Y0313597D01*
X0152526Y0313738D01*
X0152414Y0313906D01*
X0151157Y0315163D01*
X0150990Y0315275D01*
X0150848Y0315417D01*
X0149369Y0316405D01*
X0149184Y0316481D01*
X0149017Y0316593D01*
X0147374Y0317274D01*
X0147177Y0317313D01*
X0146991Y0317390D01*
X0145247Y0317737D01*
X0145046D01*
X0144849Y0317776D01*
D02*
G37*
G36*
X0178376Y0310390D02*
X0176624D01*
X0174907Y0310048D01*
X0173289Y0309378D01*
X0171833Y0308405D01*
X0170595Y0307167D01*
X0169622Y0305711D01*
X0168952Y0304093D01*
X0168610Y0302376D01*
Y0300624D01*
X0168952Y0298907D01*
X0169622Y0297289D01*
X0170595Y0295833D01*
X0171833Y0294595D01*
X0173289Y0293622D01*
X0174907Y0292952D01*
X0176624Y0292610D01*
X0178376D01*
X0180093Y0292952D01*
X0181711Y0293622D01*
X0183167Y0294595D01*
X0184405Y0295833D01*
X0185378Y0297289D01*
X0186048Y0298907D01*
X0186390Y0300624D01*
Y0302376D01*
X0186048Y0304093D01*
X0185378Y0305711D01*
X0184405Y0307167D01*
X0183167Y0308405D01*
X0181711Y0309378D01*
X0180093Y0310048D01*
X0178376Y0310390D01*
D02*
G37*
G36*
X0202501Y0292945D02*
X0200644D01*
X0200447Y0292905D01*
X0200247D01*
X0198425Y0292543D01*
X0198240Y0292466D01*
X0198043Y0292427D01*
X0196327Y0291716D01*
X0196160Y0291605D01*
X0195975Y0291528D01*
X0194431Y0290496D01*
X0194289Y0290354D01*
X0194122Y0290243D01*
X0192808Y0288930D01*
X0192697Y0288763D01*
X0192555Y0288621D01*
X0191523Y0287077D01*
X0191446Y0286891D01*
X0191335Y0286724D01*
X0190624Y0285008D01*
X0190585Y0284811D01*
X0190508Y0284626D01*
X0190146Y0282805D01*
Y0282604D01*
X0190107Y0282407D01*
Y0280550D01*
X0190146Y0280353D01*
Y0280152D01*
X0190508Y0278331D01*
X0190585Y0278145D01*
X0190624Y0277948D01*
X0191335Y0276233D01*
X0191446Y0276065D01*
X0191523Y0275880D01*
X0192555Y0274336D01*
X0192697Y0274194D01*
X0192808Y0274027D01*
X0194122Y0272714D01*
X0194289Y0272602D01*
X0194431Y0272460D01*
X0195975Y0271429D01*
X0196160Y0271352D01*
X0196327Y0271240D01*
X0198043Y0270530D01*
X0198240Y0270490D01*
X0198425Y0270413D01*
X0200247Y0270051D01*
X0200447D01*
X0200644Y0270012D01*
X0202501D01*
X0202698Y0270051D01*
X0202899D01*
X0204720Y0270413D01*
X0204906Y0270490D01*
X0205103Y0270530D01*
X0206819Y0271240D01*
X0206986Y0271352D01*
X0207171Y0271429D01*
X0208715Y0272460D01*
X0208857Y0272602D01*
X0209024Y0272714D01*
X0210337Y0274027D01*
X0210449Y0274194D01*
X0210591Y0274336D01*
X0211623Y0275880D01*
X0211699Y0276065D01*
X0211811Y0276233D01*
X0212522Y0277948D01*
X0212561Y0278145D01*
X0212638Y0278331D01*
X0213000Y0280152D01*
Y0280353D01*
X0213039Y0280550D01*
Y0282407D01*
X0213000Y0282604D01*
Y0282805D01*
X0212638Y0284626D01*
X0212561Y0284811D01*
X0212522Y0285008D01*
X0211811Y0286724D01*
X0211699Y0286891D01*
X0211623Y0287077D01*
X0210591Y0288621D01*
X0210449Y0288763D01*
X0210337Y0288930D01*
X0209024Y0290243D01*
X0208857Y0290354D01*
X0208715Y0290496D01*
X0207171Y0291528D01*
X0206986Y0291605D01*
X0206819Y0291716D01*
X0205103Y0292427D01*
X0204906Y0292466D01*
X0204720Y0292543D01*
X0202899Y0292905D01*
X0202698D01*
X0202501Y0292945D01*
D02*
G37*
G36*
X0242006Y0256925D02*
X0240254D01*
X0238537Y0256584D01*
X0236919Y0255913D01*
X0235463Y0254941D01*
X0234225Y0253702D01*
X0233252Y0252246D01*
X0232582Y0250628D01*
X0232340Y0249411D01*
X0230757Y0248371D01*
X0226335Y0247237D01*
X0226167Y0247405D01*
X0224711Y0248378D01*
X0223093Y0249048D01*
X0221376Y0249390D01*
X0219624D01*
X0217907Y0249048D01*
X0216289Y0248378D01*
X0214833Y0247405D01*
X0213595Y0246167D01*
X0212622Y0244711D01*
X0211952Y0243093D01*
X0211610Y0241376D01*
Y0239624D01*
X0211952Y0237907D01*
X0212622Y0236289D01*
X0213595Y0234833D01*
X0214833Y0233595D01*
X0216289Y0232622D01*
X0217907Y0231952D01*
X0219624Y0231610D01*
X0221376D01*
X0223093Y0231952D01*
X0224711Y0232622D01*
X0226167Y0233595D01*
X0227405Y0234833D01*
X0228378Y0236289D01*
X0229048Y0237907D01*
X0229290Y0239124D01*
X0230873Y0240164D01*
X0235295Y0241298D01*
X0235463Y0241130D01*
X0236919Y0240157D01*
X0238537Y0239487D01*
X0240254Y0239146D01*
X0242006D01*
X0243723Y0239487D01*
X0245341Y0240157D01*
X0246797Y0241130D01*
X0248035Y0242369D01*
X0249008Y0243825D01*
X0249678Y0245442D01*
X0250020Y0247160D01*
Y0248911D01*
X0249678Y0250628D01*
X0249008Y0252246D01*
X0248035Y0253702D01*
X0246797Y0254941D01*
X0245341Y0255913D01*
X0243723Y0256584D01*
X0242006Y0256925D01*
D02*
G37*
G36*
X0191376Y0201890D02*
X0189624D01*
X0187907Y0201548D01*
X0186289Y0200878D01*
X0184833Y0199905D01*
X0183595Y0198667D01*
X0182622Y0197211D01*
X0181952Y0195593D01*
X0181610Y0193876D01*
Y0192124D01*
X0181952Y0190407D01*
X0182622Y0188789D01*
X0183595Y0187333D01*
X0184833Y0186095D01*
X0186289Y0185122D01*
X0187907Y0184452D01*
X0189624Y0184110D01*
X0191376D01*
X0193093Y0184452D01*
X0194711Y0185122D01*
X0196167Y0186095D01*
X0197405Y0187333D01*
X0198378Y0188789D01*
X0199048Y0190407D01*
X0199390Y0192124D01*
Y0193876D01*
X0199048Y0195593D01*
X0198378Y0197211D01*
X0197405Y0198667D01*
X0196167Y0199905D01*
X0194711Y0200878D01*
X0193093Y0201548D01*
X0191376Y0201890D01*
D02*
G37*
G36*
X0226150Y0184846D02*
X0215457D01*
Y0174153D01*
X0226150D01*
Y0184846D01*
D02*
G37*
G36*
X0247050Y0184429D02*
X0245642D01*
X0244283Y0184065D01*
X0243064Y0183361D01*
X0242068Y0182366D01*
X0241364Y0181146D01*
X0241000Y0179787D01*
Y0178379D01*
X0241364Y0177019D01*
X0242068Y0175800D01*
X0243064Y0174804D01*
X0244283Y0174101D01*
X0245642Y0173736D01*
X0247050D01*
X0248410Y0174101D01*
X0249629Y0174804D01*
X0250625Y0175800D01*
X0251328Y0177019D01*
X0251693Y0178379D01*
Y0179787D01*
X0251328Y0181146D01*
X0250625Y0182366D01*
X0249629Y0183361D01*
X0248410Y0184065D01*
X0247050Y0184429D01*
D02*
G37*
G36*
X0251693Y0164429D02*
X0241000D01*
Y0153736D01*
X0251693D01*
Y0164429D01*
D02*
G37*
G36*
X0183376Y0166890D02*
X0181624D01*
X0179907Y0166548D01*
X0178289Y0165878D01*
X0176833Y0164905D01*
X0175595Y0163667D01*
X0174622Y0162211D01*
X0173952Y0160593D01*
X0173610Y0158876D01*
Y0157124D01*
X0173952Y0155407D01*
X0174622Y0153789D01*
X0175595Y0152333D01*
X0176833Y0151095D01*
X0178289Y0150122D01*
X0179907Y0149452D01*
X0181624Y0149110D01*
X0183376D01*
X0185093Y0149452D01*
X0186711Y0150122D01*
X0188167Y0151095D01*
X0189405Y0152333D01*
X0190378Y0153789D01*
X0191048Y0155407D01*
X0191390Y0157124D01*
Y0158876D01*
X0191048Y0160593D01*
X0190378Y0162211D01*
X0189405Y0163667D01*
X0188167Y0164905D01*
X0186711Y0165878D01*
X0185093Y0166548D01*
X0183376Y0166890D01*
D02*
G37*
G36*
X0144920Y0161672D02*
X0143080D01*
X0142883Y0161633D01*
X0142682D01*
X0140877Y0161274D01*
X0140692Y0161197D01*
X0140495Y0161158D01*
X0138795Y0160453D01*
X0138628Y0160342D01*
X0138442Y0160265D01*
X0136912Y0159243D01*
X0136770Y0159100D01*
X0136603Y0158989D01*
X0135302Y0157688D01*
X0135191Y0157521D01*
X0135049Y0157379D01*
X0134026Y0155849D01*
X0133949Y0155663D01*
X0133838Y0155496D01*
X0133134Y0153796D01*
X0133095Y0153599D01*
X0133018Y0153414D01*
X0132659Y0151609D01*
Y0151408D01*
X0132620Y0151211D01*
Y0149371D01*
X0132659Y0149174D01*
Y0148973D01*
X0133018Y0147169D01*
X0133095Y0146983D01*
X0133134Y0146786D01*
X0133838Y0145086D01*
X0133949Y0144919D01*
X0134026Y0144734D01*
X0135049Y0143204D01*
X0135191Y0143062D01*
X0135302Y0142895D01*
X0136603Y0141594D01*
X0136770Y0141482D01*
X0136912Y0141340D01*
X0138442Y0140318D01*
X0138628Y0140241D01*
X0138795Y0140129D01*
X0140495Y0139425D01*
X0140692Y0139386D01*
X0140877Y0139309D01*
X0142682Y0138950D01*
X0142883D01*
X0143080Y0138911D01*
X0144920D01*
X0145117Y0138950D01*
X0145318D01*
X0147123Y0139309D01*
X0147308Y0139386D01*
X0147505Y0139425D01*
X0149205Y0140129D01*
X0149372Y0140241D01*
X0149557Y0140318D01*
X0151087Y0141340D01*
X0151230Y0141482D01*
X0151397Y0141594D01*
X0152698Y0142895D01*
X0152809Y0143062D01*
X0152951Y0143204D01*
X0153973Y0144734D01*
X0154050Y0144919D01*
X0154162Y0145086D01*
X0154866Y0146786D01*
X0154905Y0146983D01*
X0154982Y0147169D01*
X0155341Y0148973D01*
Y0149174D01*
X0155380Y0149371D01*
Y0151211D01*
X0155341Y0151408D01*
Y0151609D01*
X0154982Y0153414D01*
X0154905Y0153599D01*
X0154866Y0153796D01*
X0154162Y0155496D01*
X0154050Y0155663D01*
X0153973Y0155849D01*
X0152951Y0157379D01*
X0152809Y0157521D01*
X0152698Y0157688D01*
X0151397Y0158989D01*
X0151230Y0159101D01*
X0151087Y0159243D01*
X0149557Y0160265D01*
X0149372Y0160342D01*
X0149205Y0160453D01*
X0147505Y0161158D01*
X0147308Y0161197D01*
X0147123Y0161274D01*
X0145318Y0161633D01*
X0145117D01*
X0144920Y0161672D01*
D02*
G37*
G36*
X0179220Y0132405D02*
X0163409D01*
Y0116595D01*
X0179220D01*
Y0132405D01*
D02*
G37*
G36*
X0116330Y0132193D02*
X0115166D01*
X0114969Y0132153D01*
X0114769D01*
X0113628Y0131927D01*
X0113442Y0131850D01*
X0113245Y0131810D01*
X0112170Y0131365D01*
X0112003Y0131254D01*
X0111818Y0131177D01*
X0110851Y0130531D01*
X0110708Y0130389D01*
X0110542Y0130277D01*
X0109719Y0129455D01*
X0109607Y0129288D01*
X0109465Y0129146D01*
X0108819Y0128178D01*
X0108742Y0127993D01*
X0108631Y0127826D01*
X0108186Y0126751D01*
X0108146Y0126554D01*
X0108070Y0126368D01*
X0107843Y0125227D01*
Y0125027D01*
X0107803Y0124830D01*
Y0123666D01*
X0107843Y0123469D01*
Y0123269D01*
X0108070Y0122128D01*
X0108146Y0121942D01*
X0108186Y0121745D01*
X0108631Y0120670D01*
X0108742Y0120503D01*
X0108819Y0120318D01*
X0109465Y0119351D01*
X0109607Y0119209D01*
X0109719Y0119042D01*
X0110542Y0118219D01*
X0110708Y0118107D01*
X0110851Y0117965D01*
X0111818Y0117319D01*
X0112003Y0117242D01*
X0112170Y0117131D01*
X0113245Y0116685D01*
X0113442Y0116646D01*
X0113628Y0116569D01*
X0114769Y0116342D01*
X0114969D01*
X0115166Y0116303D01*
X0116330D01*
X0116527Y0116342D01*
X0116727D01*
X0117868Y0116569D01*
X0118054Y0116646D01*
X0118251Y0116685D01*
X0119326Y0117131D01*
X0119493Y0117242D01*
X0119678Y0117319D01*
X0120645Y0117965D01*
X0120788Y0118107D01*
X0120955Y0118219D01*
X0121777Y0119042D01*
X0121889Y0119209D01*
X0122031Y0119351D01*
X0122677Y0120318D01*
X0122754Y0120503D01*
X0122865Y0120670D01*
X0123310Y0121745D01*
X0123350Y0121942D01*
X0123427Y0122128D01*
X0123653Y0123269D01*
Y0123469D01*
X0123693Y0123666D01*
Y0124830D01*
X0123653Y0125027D01*
Y0125227D01*
X0123427Y0126368D01*
X0123350Y0126554D01*
X0123310Y0126751D01*
X0122865Y0127826D01*
X0122754Y0127993D01*
X0122677Y0128178D01*
X0122031Y0129146D01*
X0121889Y0129288D01*
X0121777Y0129455D01*
X0120955Y0130277D01*
X0120788Y0130389D01*
X0120645Y0130531D01*
X0119678Y0131177D01*
X0119493Y0131254D01*
X0119326Y0131365D01*
X0118251Y0131810D01*
X0118054Y0131850D01*
X0117868Y0131927D01*
X0116727Y0132153D01*
X0116527D01*
X0116330Y0132193D01*
D02*
G37*
G36*
X0143053Y0132390D02*
X0141302D01*
X0139585Y0132048D01*
X0137967Y0131378D01*
X0136511Y0130405D01*
X0135272Y0129167D01*
X0134300Y0127711D01*
X0133629Y0126093D01*
X0133288Y0124376D01*
Y0122624D01*
X0133629Y0120907D01*
X0134300Y0119289D01*
X0135272Y0117833D01*
X0136511Y0116595D01*
X0137967Y0115622D01*
X0139585Y0114952D01*
X0141302Y0114610D01*
X0143053D01*
X0144771Y0114952D01*
X0146388Y0115622D01*
X0147844Y0116595D01*
X0149083Y0117833D01*
X0150056Y0119289D01*
X0150726Y0120907D01*
X0151067Y0122624D01*
Y0124376D01*
X0150726Y0126093D01*
X0150056Y0127711D01*
X0149083Y0129167D01*
X0147844Y0130405D01*
X0146388Y0131378D01*
X0144771Y0132048D01*
X0143053Y0132390D01*
D02*
G37*
%LPD*%
D10*
X0344000Y0160000D02*
Y0170000D01*
X0326228Y0161089D02*
X0342325D01*
X0343414Y0160000D01*
X0344000D01*
Y0190000D02*
X0344202Y0189798D01*
X0353702D01*
X0363000Y0180500D01*
X0344000Y0190000D02*
Y0200000D01*
D11*
X0315500Y0133500D02*
X0344500D01*
X0335507Y0124507D02*
X0344500Y0133500D01*
X0328651Y0124507D02*
X0335507D01*
X0344500Y0133500D02*
Y0139500D01*
X0328500Y0124356D02*
X0328651Y0124507D01*
D12*
X0220500Y0240500D02*
D03*
X0241130Y0248035D02*
D03*
X0177500Y0301500D02*
D03*
X0142177Y0123500D02*
D03*
X0190500Y0193000D02*
D03*
X0182500Y0158000D02*
D03*
X0110542Y0149958D02*
D03*
X0319870Y0248035D02*
D03*
D13*
X0276000Y0223063D02*
D03*
D14*
Y0231331D02*
D03*
D15*
X0344000Y0180000D02*
D03*
Y0170000D02*
D03*
Y0160000D02*
D03*
Y0150000D02*
D03*
Y0130000D02*
D03*
Y0190000D02*
D03*
Y0140000D02*
D03*
D16*
Y0200000D02*
D03*
D17*
X0220803Y0179500D02*
D03*
X0299461Y0181483D02*
D03*
X0246346Y0159083D02*
D03*
D18*
X0220803Y0159500D02*
D03*
X0299461Y0161483D02*
D03*
X0246346Y0179083D02*
D03*
X0328500Y0124356D02*
D03*
X0363000Y0180500D02*
D03*
D19*
X0326228Y0161089D02*
D03*
D20*
Y0171483D02*
D03*
X0326622Y0181876D02*
D03*
D21*
X0356000Y0225000D02*
D03*
X0191000Y0124500D02*
D03*
D22*
X0356000Y0244685D02*
D03*
D23*
X0365000Y0164500D02*
D03*
D24*
Y0154500D02*
D03*
D25*
X0171315Y0124500D02*
D03*
M02*
